<?xml version="1.0" encoding="utf-8" ?>
<svg xmlns="http://www.w3.org/2000/svg" xmlns:xlink="http://www.w3.org/1999/xlink" width="1024" height="1024">
	<defs>
		<linearGradient id="gradient_0" gradientUnits="userSpaceOnUse" x1="42.182487" y1="199.71097" x2="459.06711" y2="322.52936">
			<stop offset="0" stop-color="#FF75CA"/>
			<stop offset="1" stop-color="#9917FD"/>
		</linearGradient>
	</defs>
	<path fill="url(#gradient_0)" transform="scale(2 2)" d="M396.394 142.134C423.126 95.1616 475.618 136.108 455.446 170.427C441.14 194.765 402.903 188.769 397.918 165.236C394.001 165.235 386.709 164.712 383.172 165.236C375.711 169.821 364.283 186.797 357.028 188.212C352.422 189.109 342.952 188.478 337.843 188.488L337.843 213.009C345.855 213.017 353.875 212.92 361.885 213.009L374.212 200.827C384.5 190.755 384.651 193.418 398.631 193.452L425.009 193.443C441.695 193.516 438.877 205.338 438.881 217.201C438.883 225.833 439.196 234.606 438.795 243.219C438.102 258.114 419.917 253.274 410.259 253.888C403.659 258.844 398.758 265.669 392.518 271.033C388.657 274.352 376.776 272.719 372.016 272.715L337.843 272.716L337.843 285.259C342.053 285.251 357.484 284.688 360.722 285.618C364.019 286.565 378.186 303.969 383.172 307.811C388.085 307.871 393.005 307.934 397.918 307.811C409.438 279.757 445.95 280.16 456.719 306.44C471.29 342.003 421.039 366.818 401.357 336.048C400.071 334.038 399.093 331.886 397.918 329.819C393.751 329.827 376.896 330.36 374.119 329.476C368.783 327.777 356.43 312.367 351.618 307.811L336.905 307.811C327.221 335.667 306.498 347.377 278.098 346.001L231.433 345.99C225.814 345.989 215.973 345.457 210.696 346.254L210.225 346.328C206.803 346.848 138.084 402.207 131.636 407.132C128.945 409.187 126.51 411.847 123.63 413.591C117.887 417.068 109.762 413.977 108.342 407.336C107.164 401.827 107.769 391.959 107.767 386.078L107.776 346.741C81.7586 346.848 58.383 328.852 53.4134 303.02C51.9531 295.429 52.5018 287.354 52.512 279.641L52.5121 196.192C52.5104 187.176 52.1527 177.996 52.5749 168.997C53.565 147.894 70.6721 127.778 91.6855 124.23C102.202 122.454 113.44 123.244 124.08 123.252L278.998 123.244C283.433 123.238 287.929 123.037 292.356 123.25C315.449 126.215 332.945 142.264 336.905 165.236L350.377 165.236C354.625 161.206 371.239 143.371 375.293 142.43C378.614 141.66 392.185 142.046 396.394 142.134ZM130.113 379.584C132.262 378.363 134.225 376.642 136.176 375.129L186.354 335.793C191.532 331.753 196.49 326.912 202.455 324.053L259.528 324.055C268.88 324.056 278.346 324.374 287.683 324.053C316.387 319.391 315.03 302.23 315.021 278.429L315.023 197.956C315.022 189.065 316.337 173.583 313.662 165.236C306.492 142.353 285.613 145.946 267.231 145.958L120.17 145.961C112.38 145.963 100.275 145.204 92.9707 147.514C72.5553 153.973 75.2119 172.781 75.2373 189.106L75.2329 273.029C75.2181 291.203 71.8312 311.293 91.6047 321.128C98.2487 324.432 105.603 324.048 112.807 324.056C131.047 324.075 130.138 331.148 130.126 346.075L130.1 368.793C130.095 372.323 129.792 376.087 130.113 379.584ZM392.727 215.47C386.232 220.179 378.352 231.875 372.014 234.512C368.442 235.999 343.491 235.277 337.843 235.268L337.843 250.057L361.125 250.057C365.458 250.068 378.653 250.858 381.921 249.157C391.291 244.277 395.2 231.483 407.139 231.467C409.991 231.463 412.843 231.546 415.695 231.515L415.695 215.47L392.727 215.47ZM426.743 144.332C413.759 146.616 415.47 165.058 428.638 163.958C442.311 160.723 439.382 143.147 426.743 144.332ZM426.743 309.071C413.99 311.054 416.067 327.797 428.638 327.479C440.497 325.603 437.318 307.357 426.743 309.071Z"/>
	<path fill="#CF41EA" transform="scale(2 2)" d="M240.952 185.246C263.511 183.797 268.161 213.036 247.818 218.841C222.36 220.707 220.58 190.829 240.952 185.246Z"/>
	<path fill="#CF41EA" transform="scale(2 2)" d="M242.39 231.515C276.146 229.471 281.197 278.024 247.818 282.153C235.272 284.562 221.793 273.04 219.959 260.624C217.849 246.335 228.303 233.473 242.39 231.515Z"/>
	<defs>
		<linearGradient id="gradient_1" gradientUnits="userSpaceOnUse" x1="128.78226" y1="218.83798" x2="213.125" y2="259.5123">
			<stop offset="0" stop-color="#F162D0"/>
			<stop offset="1" stop-color="#D441E8"/>
		</linearGradient>
	</defs>
	<path fill="url(#gradient_1)" transform="scale(2 2)" d="M165.182 185.246C186.091 182.611 206.116 198.983 207.753 219.976C208.49 229.42 207.977 239.172 207.995 248.654L208.021 261.632C208.026 267.275 208.522 273.624 204.483 278.157C200.003 283.186 193.277 283.076 188.553 278.413C184.736 274.647 185.145 269.88 185.213 264.992L185.247 257.284L173.193 257.284L153.938 257.284C153.952 263.087 155.071 272.584 151.455 277.254C143.897 287.014 130.724 280.743 130.161 269.491C129.749 261.254 130.134 252.843 130.119 244.584C130.086 227.064 127.804 211.283 140.629 197.147C146.748 190.401 156.057 185.662 165.182 185.246ZM168.05 207.319C152.525 210.054 153.912 222.653 153.938 235.268L171.875 235.268L185.247 235.268C185.569 223.926 184.841 205.289 168.05 207.319Z"/>
</svg>
